<mxfile host="65bd71144e">
    <diagram id="iUIYzV6PCCjG7ji8CW9P" name="Seite-1">
        <mxGraphModel dx="1165" dy="585" grid="1" gridSize="10" guides="1" tooltips="1" connect="1" arrows="1" fold="1" page="1" pageScale="1" pageWidth="3300" pageHeight="4681" math="0" shadow="0">
            <root>
                <mxCell id="0"/>
                <mxCell id="1" parent="0"/>
                <mxCell id="55WiCtzzBeBDgJTwFfC0-2" value="GUI-Variablen" style="swimlane;fontStyle=0;childLayout=stackLayout;horizontal=1;startSize=30;horizontalStack=0;resizeParent=1;resizeParentMax=0;resizeLast=0;collapsible=1;marginBottom=0;whiteSpace=wrap;html=1;" parent="1" vertex="1">
                    <mxGeometry x="150" y="150" width="140" height="300" as="geometry"/>
                </mxCell>
                <mxCell id="55WiCtzzBeBDgJTwFfC0-3" value="&lt;b&gt;app &lt;/b&gt;(Application)" style="text;strokeColor=none;fillColor=none;align=left;verticalAlign=middle;spacingLeft=4;spacingRight=4;overflow=hidden;points=[[0,0.5],[1,0.5]];portConstraint=eastwest;rotatable=0;whiteSpace=wrap;html=1;" parent="55WiCtzzBeBDgJTwFfC0-2" vertex="1">
                    <mxGeometry y="30" width="140" height="30" as="geometry"/>
                </mxCell>
                <mxCell id="55WiCtzzBeBDgJTwFfC0-13" value="msg_box" style="text;strokeColor=none;fillColor=none;align=left;verticalAlign=middle;spacingLeft=4;spacingRight=4;overflow=hidden;points=[[0,0.5],[1,0.5]];portConstraint=eastwest;rotatable=0;whiteSpace=wrap;html=1;fontStyle=1" parent="55WiCtzzBeBDgJTwFfC0-2" vertex="1">
                    <mxGeometry y="60" width="140" height="30" as="geometry"/>
                </mxCell>
                <mxCell id="55WiCtzzBeBDgJTwFfC0-8" value="mW &lt;span style=&quot;font-weight: normal;&quot;&gt;(main window)&lt;/span&gt;" style="text;strokeColor=none;fillColor=none;align=left;verticalAlign=middle;spacingLeft=4;spacingRight=4;overflow=hidden;points=[[0,0.5],[1,0.5]];portConstraint=eastwest;rotatable=0;whiteSpace=wrap;html=1;fontStyle=1" parent="55WiCtzzBeBDgJTwFfC0-2" vertex="1">
                    <mxGeometry y="90" width="140" height="30" as="geometry"/>
                </mxCell>
                <mxCell id="55WiCtzzBeBDgJTwFfC0-7" value="nB &lt;span style=&quot;font-weight: normal;&quot;&gt;(new BPM)&lt;/span&gt;" style="text;strokeColor=none;fillColor=none;align=left;verticalAlign=middle;spacingLeft=4;spacingRight=4;overflow=hidden;points=[[0,0.5],[1,0.5]];portConstraint=eastwest;rotatable=0;whiteSpace=wrap;html=1;fontStyle=1" parent="55WiCtzzBeBDgJTwFfC0-2" vertex="1">
                    <mxGeometry y="120" width="140" height="30" as="geometry"/>
                </mxCell>
                <mxCell id="55WiCtzzBeBDgJTwFfC0-6" value="eS &lt;span style=&quot;font-weight: normal;&quot;&gt;(Einstellung suchen)&lt;/span&gt;" style="text;strokeColor=none;fillColor=none;align=left;verticalAlign=middle;spacingLeft=4;spacingRight=4;overflow=hidden;points=[[0,0.5],[1,0.5]];portConstraint=eastwest;rotatable=0;whiteSpace=wrap;html=1;fontStyle=1" parent="55WiCtzzBeBDgJTwFfC0-2" vertex="1">
                    <mxGeometry y="150" width="140" height="30" as="geometry"/>
                </mxCell>
                <mxCell id="55WiCtzzBeBDgJTwFfC0-4" value="eK &lt;span style=&quot;font-weight: normal;&quot;&gt;(Einstellung korrekt.)&lt;/span&gt;" style="text;strokeColor=none;fillColor=none;align=left;verticalAlign=middle;spacingLeft=4;spacingRight=4;overflow=hidden;points=[[0,0.5],[1,0.5]];portConstraint=eastwest;rotatable=0;whiteSpace=wrap;html=1;fontStyle=1" parent="55WiCtzzBeBDgJTwFfC0-2" vertex="1">
                    <mxGeometry y="180" width="140" height="30" as="geometry"/>
                </mxCell>
                <mxCell id="55WiCtzzBeBDgJTwFfC0-5" value="&lt;b&gt;fF &lt;/b&gt;(Flat Flied Korrektur)" style="text;strokeColor=none;fillColor=none;align=left;verticalAlign=middle;spacingLeft=4;spacingRight=4;overflow=hidden;points=[[0,0.5],[1,0.5]];portConstraint=eastwest;rotatable=0;whiteSpace=wrap;html=1;" parent="55WiCtzzBeBDgJTwFfC0-2" vertex="1">
                    <mxGeometry y="210" width="140" height="30" as="geometry"/>
                </mxCell>
                <mxCell id="55WiCtzzBeBDgJTwFfC0-12" value="&lt;b&gt;progess &lt;/b&gt;(fortschritt)" style="text;strokeColor=none;fillColor=none;align=left;verticalAlign=middle;spacingLeft=4;spacingRight=4;overflow=hidden;points=[[0,0.5],[1,0.5]];portConstraint=eastwest;rotatable=0;whiteSpace=wrap;html=1;" parent="55WiCtzzBeBDgJTwFfC0-2" vertex="1">
                    <mxGeometry y="240" width="140" height="30" as="geometry"/>
                </mxCell>
                <mxCell id="55WiCtzzBeBDgJTwFfC0-11" value="image_window" style="text;strokeColor=none;fillColor=none;align=left;verticalAlign=middle;spacingLeft=4;spacingRight=4;overflow=hidden;points=[[0,0.5],[1,0.5]];portConstraint=eastwest;rotatable=0;whiteSpace=wrap;html=1;fontStyle=1" parent="55WiCtzzBeBDgJTwFfC0-2" vertex="1">
                    <mxGeometry y="270" width="140" height="30" as="geometry"/>
                </mxCell>
                <mxCell id="55WiCtzzBeBDgJTwFfC0-23" value="sys.exit(app.exec())" style="rounded=0;whiteSpace=wrap;html=1;" parent="1" vertex="1">
                    <mxGeometry x="320" y="185" width="120" height="20" as="geometry"/>
                </mxCell>
                <mxCell id="55WiCtzzBeBDgJTwFfC0-24" style="edgeStyle=orthogonalEdgeStyle;rounded=0;orthogonalLoop=1;jettySize=auto;html=1;exitX=1;exitY=0.5;exitDx=0;exitDy=0;entryX=0;entryY=0.5;entryDx=0;entryDy=0;" parent="1" source="55WiCtzzBeBDgJTwFfC0-3" target="55WiCtzzBeBDgJTwFfC0-23" edge="1">
                    <mxGeometry relative="1" as="geometry"/>
                </mxCell>
                <mxCell id="e5w4jrsQhgoyTs_CoVzM-23" style="edgeStyle=orthogonalEdgeStyle;rounded=0;orthogonalLoop=1;jettySize=auto;html=1;exitX=1;exitY=0.5;exitDx=0;exitDy=0;entryX=0;entryY=0.5;entryDx=0;entryDy=0;verticalAlign=middle;targetPerimeterSpacing=6;endSize=6;jumpStyle=none;" parent="1" source="55WiCtzzBeBDgJTwFfC0-25" target="e5w4jrsQhgoyTs_CoVzM-2" edge="1">
                    <mxGeometry relative="1" as="geometry"/>
                </mxCell>
                <mxCell id="e5w4jrsQhgoyTs_CoVzM-25" style="edgeStyle=orthogonalEdgeStyle;rounded=0;orthogonalLoop=1;jettySize=auto;html=1;exitX=1;exitY=0.5;exitDx=0;exitDy=0;entryX=0;entryY=0.5;entryDx=0;entryDy=0;" parent="1" source="55WiCtzzBeBDgJTwFfC0-25" target="e5w4jrsQhgoyTs_CoVzM-3" edge="1">
                    <mxGeometry relative="1" as="geometry"/>
                </mxCell>
                <mxCell id="e5w4jrsQhgoyTs_CoVzM-29" style="edgeStyle=orthogonalEdgeStyle;rounded=0;orthogonalLoop=1;jettySize=auto;html=1;exitX=1;exitY=0.5;exitDx=0;exitDy=0;entryX=0;entryY=0.5;entryDx=0;entryDy=0;" parent="1" source="55WiCtzzBeBDgJTwFfC0-25" target="e5w4jrsQhgoyTs_CoVzM-5" edge="1">
                    <mxGeometry relative="1" as="geometry"/>
                </mxCell>
                <mxCell id="e5w4jrsQhgoyTs_CoVzM-30" style="edgeStyle=orthogonalEdgeStyle;rounded=0;orthogonalLoop=1;jettySize=auto;html=1;exitX=1;exitY=0.5;exitDx=0;exitDy=0;entryX=0;entryY=0.5;entryDx=0;entryDy=0;" parent="1" source="55WiCtzzBeBDgJTwFfC0-25" target="e5w4jrsQhgoyTs_CoVzM-6" edge="1">
                    <mxGeometry relative="1" as="geometry"/>
                </mxCell>
                <mxCell id="e5w4jrsQhgoyTs_CoVzM-31" style="edgeStyle=orthogonalEdgeStyle;rounded=0;orthogonalLoop=1;jettySize=auto;html=1;exitX=1;exitY=0.5;exitDx=0;exitDy=0;entryX=0;entryY=0.5;entryDx=0;entryDy=0;" parent="1" source="55WiCtzzBeBDgJTwFfC0-25" target="e5w4jrsQhgoyTs_CoVzM-7" edge="1">
                    <mxGeometry relative="1" as="geometry"/>
                </mxCell>
                <mxCell id="e5w4jrsQhgoyTs_CoVzM-32" style="edgeStyle=orthogonalEdgeStyle;rounded=0;orthogonalLoop=1;jettySize=auto;html=1;exitX=1;exitY=0.5;exitDx=0;exitDy=0;entryX=0;entryY=0.5;entryDx=0;entryDy=0;" parent="1" source="55WiCtzzBeBDgJTwFfC0-25" target="e5w4jrsQhgoyTs_CoVzM-8" edge="1">
                    <mxGeometry relative="1" as="geometry"/>
                </mxCell>
                <mxCell id="e5w4jrsQhgoyTs_CoVzM-34" style="edgeStyle=orthogonalEdgeStyle;rounded=0;orthogonalLoop=1;jettySize=auto;html=1;exitX=1;exitY=0.5;exitDx=0;exitDy=0;entryX=0;entryY=0.5;entryDx=0;entryDy=0;" parent="1" source="55WiCtzzBeBDgJTwFfC0-25" target="e5w4jrsQhgoyTs_CoVzM-11" edge="1">
                    <mxGeometry relative="1" as="geometry"/>
                </mxCell>
                <mxCell id="e5w4jrsQhgoyTs_CoVzM-35" style="edgeStyle=orthogonalEdgeStyle;rounded=0;orthogonalLoop=1;jettySize=auto;html=1;exitX=1;exitY=0.5;exitDx=0;exitDy=0;entryX=0;entryY=0.5;entryDx=0;entryDy=0;" parent="1" source="55WiCtzzBeBDgJTwFfC0-25" target="e5w4jrsQhgoyTs_CoVzM-12" edge="1">
                    <mxGeometry relative="1" as="geometry"/>
                </mxCell>
                <mxCell id="e5w4jrsQhgoyTs_CoVzM-36" style="edgeStyle=orthogonalEdgeStyle;rounded=0;orthogonalLoop=1;jettySize=auto;html=1;exitX=1;exitY=0.5;exitDx=0;exitDy=0;entryX=0;entryY=0.5;entryDx=0;entryDy=0;" parent="1" source="55WiCtzzBeBDgJTwFfC0-25" target="e5w4jrsQhgoyTs_CoVzM-13" edge="1">
                    <mxGeometry relative="1" as="geometry"/>
                </mxCell>
                <mxCell id="e5w4jrsQhgoyTs_CoVzM-39" style="edgeStyle=orthogonalEdgeStyle;rounded=0;orthogonalLoop=1;jettySize=auto;html=1;exitX=1;exitY=0.5;exitDx=0;exitDy=0;entryX=0;entryY=0.5;entryDx=0;entryDy=0;" parent="1" source="55WiCtzzBeBDgJTwFfC0-25" target="e5w4jrsQhgoyTs_CoVzM-14" edge="1">
                    <mxGeometry relative="1" as="geometry"/>
                </mxCell>
                <mxCell id="e5w4jrsQhgoyTs_CoVzM-40" style="edgeStyle=orthogonalEdgeStyle;rounded=0;orthogonalLoop=1;jettySize=auto;html=1;exitX=1;exitY=0.5;exitDx=0;exitDy=0;entryX=0;entryY=0.5;entryDx=0;entryDy=0;" parent="1" source="55WiCtzzBeBDgJTwFfC0-25" target="e5w4jrsQhgoyTs_CoVzM-15" edge="1">
                    <mxGeometry relative="1" as="geometry"/>
                </mxCell>
                <mxCell id="e5w4jrsQhgoyTs_CoVzM-41" style="edgeStyle=orthogonalEdgeStyle;rounded=0;orthogonalLoop=1;jettySize=auto;html=1;exitX=1;exitY=0.5;exitDx=0;exitDy=0;entryX=0;entryY=0.5;entryDx=0;entryDy=0;" parent="1" source="55WiCtzzBeBDgJTwFfC0-25" target="e5w4jrsQhgoyTs_CoVzM-16" edge="1">
                    <mxGeometry relative="1" as="geometry"/>
                </mxCell>
                <mxCell id="e5w4jrsQhgoyTs_CoVzM-42" style="edgeStyle=orthogonalEdgeStyle;rounded=0;orthogonalLoop=1;jettySize=auto;html=1;exitX=1;exitY=0.5;exitDx=0;exitDy=0;entryX=0;entryY=0.5;entryDx=0;entryDy=0;" parent="1" source="55WiCtzzBeBDgJTwFfC0-25" target="e5w4jrsQhgoyTs_CoVzM-17" edge="1">
                    <mxGeometry relative="1" as="geometry"/>
                </mxCell>
                <mxCell id="e5w4jrsQhgoyTs_CoVzM-43" style="edgeStyle=orthogonalEdgeStyle;rounded=0;orthogonalLoop=1;jettySize=auto;html=1;exitX=1;exitY=0.5;exitDx=0;exitDy=0;entryX=0;entryY=0.5;entryDx=0;entryDy=0;" parent="1" source="55WiCtzzBeBDgJTwFfC0-25" target="e5w4jrsQhgoyTs_CoVzM-18" edge="1">
                    <mxGeometry relative="1" as="geometry"/>
                </mxCell>
                <mxCell id="e5w4jrsQhgoyTs_CoVzM-44" style="edgeStyle=orthogonalEdgeStyle;rounded=0;orthogonalLoop=1;jettySize=auto;html=1;exitX=1;exitY=0.5;exitDx=0;exitDy=0;entryX=0;entryY=0.5;entryDx=0;entryDy=0;" parent="1" source="55WiCtzzBeBDgJTwFfC0-25" target="e5w4jrsQhgoyTs_CoVzM-20" edge="1">
                    <mxGeometry relative="1" as="geometry"/>
                </mxCell>
                <mxCell id="e5w4jrsQhgoyTs_CoVzM-45" style="edgeStyle=orthogonalEdgeStyle;rounded=0;orthogonalLoop=1;jettySize=auto;html=1;exitX=1;exitY=0.5;exitDx=0;exitDy=0;entryX=0;entryY=0.5;entryDx=0;entryDy=0;" parent="1" source="55WiCtzzBeBDgJTwFfC0-25" target="e5w4jrsQhgoyTs_CoVzM-21" edge="1">
                    <mxGeometry relative="1" as="geometry"/>
                </mxCell>
                <mxCell id="e5w4jrsQhgoyTs_CoVzM-46" style="edgeStyle=orthogonalEdgeStyle;rounded=0;orthogonalLoop=1;jettySize=auto;html=1;exitX=1;exitY=0.5;exitDx=0;exitDy=0;entryX=0;entryY=0.5;entryDx=0;entryDy=0;" parent="1" source="55WiCtzzBeBDgJTwFfC0-25" target="e5w4jrsQhgoyTs_CoVzM-33" edge="1">
                    <mxGeometry relative="1" as="geometry"/>
                </mxCell>
                <mxCell id="55WiCtzzBeBDgJTwFfC0-25" value="def open_msg_box()" style="rounded=0;whiteSpace=wrap;html=1;" parent="1" vertex="1">
                    <mxGeometry x="320" y="215" width="120" height="20" as="geometry"/>
                </mxCell>
                <mxCell id="55WiCtzzBeBDgJTwFfC0-28" style="edgeStyle=orthogonalEdgeStyle;rounded=0;orthogonalLoop=1;jettySize=auto;html=1;exitX=1;exitY=0.5;exitDx=0;exitDy=0;entryX=0;entryY=0.5;entryDx=0;entryDy=0;" parent="1" source="55WiCtzzBeBDgJTwFfC0-13" target="55WiCtzzBeBDgJTwFfC0-25" edge="1">
                    <mxGeometry relative="1" as="geometry"/>
                </mxCell>
                <mxCell id="e5w4jrsQhgoyTs_CoVzM-2" value="&lt;span style=&quot;&quot;&gt;&amp;nbsp;def start_clicked()&lt;/span&gt;" style="rounded=1;whiteSpace=wrap;html=1;align=left;" parent="1" vertex="1">
                    <mxGeometry x="570.25" width="300" height="20" as="geometry"/>
                </mxCell>
                <mxCell id="e5w4jrsQhgoyTs_CoVzM-3" value="&lt;span style=&quot;&quot;&gt;&amp;nbsp;def show_BPM()&lt;/span&gt;" style="rounded=1;whiteSpace=wrap;html=1;align=left;" parent="1" vertex="1">
                    <mxGeometry x="570.25" y="30" width="300" height="20" as="geometry"/>
                </mxCell>
                <mxCell id="e5w4jrsQhgoyTs_CoVzM-5" value="&lt;span style=&quot;&quot;&gt;&amp;nbsp;def open_FFK_window()&lt;/span&gt;" style="rounded=1;whiteSpace=wrap;html=1;align=left;" parent="1" vertex="1">
                    <mxGeometry x="570.25" y="60" width="300" height="20" as="geometry"/>
                </mxCell>
                <mxCell id="e5w4jrsQhgoyTs_CoVzM-6" value="&lt;span style=&quot;color: rgb(0, 0, 0); font-family: Helvetica; font-size: 12px; font-style: normal; font-variant-ligatures: normal; font-variant-caps: normal; font-weight: 400; letter-spacing: normal; orphans: 2; text-indent: 0px; text-transform: none; widows: 2; word-spacing: 0px; -webkit-text-stroke-width: 0px; background-color: rgb(248, 249, 250); text-decoration-thickness: initial; text-decoration-style: initial; text-decoration-color: initial;&quot;&gt;&amp;nbsp;def mW_pushbutton_BPM_new_sensor()&lt;/span&gt;&lt;br style=&quot;color: rgb(0, 0, 0); font-family: Helvetica; font-size: 12px; font-style: normal; font-variant-ligatures: normal; font-variant-caps: normal; font-weight: 400; letter-spacing: normal; orphans: 2; text-indent: 0px; text-transform: none; widows: 2; word-spacing: 0px; -webkit-text-stroke-width: 0px; background-color: rgb(248, 249, 250); text-decoration-thickness: initial; text-decoration-style: initial; text-decoration-color: initial;&quot;&gt;&lt;div style=&quot;color: rgb(0, 0, 0); font-family: Helvetica; font-size: 12px; font-style: normal; font-variant-ligatures: normal; font-variant-caps: normal; font-weight: 400; letter-spacing: normal; orphans: 2; text-indent: 0px; text-transform: none; widows: 2; word-spacing: 0px; -webkit-text-stroke-width: 0px; background-color: rgb(248, 249, 250); text-decoration-thickness: initial; text-decoration-style: initial; text-decoration-color: initial;&quot;&gt;&lt;/div&gt;" style="rounded=1;whiteSpace=wrap;html=1;align=left;" parent="1" vertex="1">
                    <mxGeometry x="570.25" y="90" width="300" height="20" as="geometry"/>
                </mxCell>
                <mxCell id="e5w4jrsQhgoyTs_CoVzM-7" value="&lt;div style=&quot;&quot;&gt;&lt;span style=&quot;background-color: initial;&quot;&gt;&amp;nbsp;def mW_pushbutton_BPM_load_sensor()&lt;/span&gt;&lt;/div&gt;&lt;div style=&quot;&quot;&gt;&lt;/div&gt;" style="rounded=1;whiteSpace=wrap;html=1;align=left;" parent="1" vertex="1">
                    <mxGeometry x="570.25" y="120" width="300" height="20" as="geometry"/>
                </mxCell>
                <mxCell id="e5w4jrsQhgoyTs_CoVzM-8" value="&lt;div style=&quot;&quot;&gt;&amp;nbsp;def mW_pushbutton_BPM_save_sensor()&lt;/div&gt;" style="rounded=1;whiteSpace=wrap;html=1;align=left;" parent="1" vertex="1">
                    <mxGeometry x="570.5" y="150" width="300" height="20" as="geometry"/>
                </mxCell>
                <mxCell id="e5w4jrsQhgoyTs_CoVzM-11" value="&lt;div style=&quot;&quot;&gt;&amp;nbsp;def mW_pushbutton_BPM_delete_sensor()&lt;/div&gt;" style="rounded=1;whiteSpace=wrap;html=1;align=left;" parent="1" vertex="1">
                    <mxGeometry x="570.5" y="180" width="300" height="20" as="geometry"/>
                </mxCell>
                <mxCell id="e5w4jrsQhgoyTs_CoVzM-12" value="&lt;div style=&quot;&quot;&gt;&amp;nbsp;def mW_pushbutton_BPM_delete_BPM()&lt;/div&gt;" style="rounded=1;whiteSpace=wrap;html=1;align=left;" parent="1" vertex="1">
                    <mxGeometry x="570.5" y="210" width="300" height="20" as="geometry"/>
                </mxCell>
                <mxCell id="e5w4jrsQhgoyTs_CoVzM-13" value="&lt;div style=&quot;&quot;&gt;&amp;nbsp;def mW_pushbutton_import_dir()&lt;/div&gt;" style="rounded=1;whiteSpace=wrap;html=1;align=left;" parent="1" vertex="1">
                    <mxGeometry x="570.5" y="240" width="300" height="20" as="geometry"/>
                </mxCell>
                <mxCell id="e5w4jrsQhgoyTs_CoVzM-14" value="&lt;div style=&quot;&quot;&gt;&amp;nbsp;def mW_pushbutton_find_dir()&lt;/div&gt;" style="rounded=1;whiteSpace=wrap;html=1;align=left;" parent="1" vertex="1">
                    <mxGeometry x="570.5" y="270" width="300" height="20" as="geometry"/>
                </mxCell>
                <mxCell id="e5w4jrsQhgoyTs_CoVzM-15" value="&lt;span style=&quot;background-color: initial;&quot;&gt;&amp;nbsp;def mW_pushbutton_import_image_data()&lt;/span&gt;" style="rounded=1;whiteSpace=wrap;html=1;align=left;" parent="1" vertex="1">
                    <mxGeometry x="570" y="300" width="300" height="22" as="geometry"/>
                </mxCell>
                <mxCell id="e5w4jrsQhgoyTs_CoVzM-16" value="&lt;br&gt;&lt;div style=&quot;&quot;&gt;&amp;nbsp;def mW_pushbutton_find_algorithm_settings()&lt;br&gt;&lt;/div&gt;&lt;div style=&quot;&quot;&gt;&lt;div&gt;&lt;br&gt;&lt;/div&gt;&lt;/div&gt;" style="rounded=1;whiteSpace=wrap;html=1;align=left;" parent="1" vertex="1">
                    <mxGeometry x="570.75" y="330" width="300" height="20" as="geometry"/>
                </mxCell>
                <mxCell id="e5w4jrsQhgoyTs_CoVzM-17" value="&lt;div style=&quot;&quot;&gt;&lt;span style=&quot;background-color: initial;&quot;&gt;&amp;nbsp;def mW_pushbutton_correct_algorithm_settings()&lt;/span&gt;&lt;/div&gt;" style="rounded=1;whiteSpace=wrap;html=1;align=left;" parent="1" vertex="1">
                    <mxGeometry x="570.25" y="360" width="300.5" height="20" as="geometry"/>
                </mxCell>
                <mxCell id="e5w4jrsQhgoyTs_CoVzM-18" value="&lt;div style=&quot;&quot;&gt;&lt;span style=&quot;background-color: initial;&quot;&gt;&amp;nbsp;def fF_pushbutton_bright_add()&lt;/span&gt;&lt;/div&gt;" style="rounded=1;whiteSpace=wrap;html=1;align=left;" parent="1" vertex="1">
                    <mxGeometry x="570.75" y="390" width="300" height="20" as="geometry"/>
                </mxCell>
                <mxCell id="e5w4jrsQhgoyTs_CoVzM-20" value="&lt;div style=&quot;&quot;&gt;&amp;nbsp;def fF_pushbutton_dark_add()&lt;/div&gt;" style="rounded=1;whiteSpace=wrap;html=1;align=left;" parent="1" vertex="1">
                    <mxGeometry x="570.25" y="420" width="300.5" height="20" as="geometry"/>
                </mxCell>
                <mxCell id="e5w4jrsQhgoyTs_CoVzM-21" value="&lt;span style=&quot;&quot;&gt;&amp;nbsp;def cofuction(BPM, F)&lt;/span&gt;" style="rounded=1;whiteSpace=wrap;html=1;align=left;" parent="1" vertex="1">
                    <mxGeometry x="570.25" y="450" width="300.5" height="20" as="geometry"/>
                </mxCell>
                <mxCell id="e5w4jrsQhgoyTs_CoVzM-33" value="&amp;nbsp;def start()" style="rounded=1;whiteSpace=wrap;html=1;align=left;" parent="1" vertex="1">
                    <mxGeometry x="570" y="480" width="300" height="20" as="geometry"/>
                </mxCell>
                <mxCell id="e5w4jrsQhgoyTs_CoVzM-52" value="" style="endArrow=classic;html=1;rounded=0;exitX=1;exitY=0.25;exitDx=0;exitDy=0;entryX=1;entryY=0.75;entryDx=0;entryDy=0;" parent="1" source="e5w4jrsQhgoyTs_CoVzM-5" target="e5w4jrsQhgoyTs_CoVzM-5" edge="1">
                    <mxGeometry width="50" height="50" relative="1" as="geometry">
                        <mxPoint x="820" y="140" as="sourcePoint"/>
                        <mxPoint x="940" y="120" as="targetPoint"/>
                        <Array as="points">
                            <mxPoint x="900" y="65"/>
                            <mxPoint x="900" y="75"/>
                        </Array>
                    </mxGeometry>
                </mxCell>
            </root>
        </mxGraphModel>
    </diagram>
</mxfile>